<?xml version="1.0" standalone="no"?>
<!DOCTYPE svg PUBLIC "-//W3C//DTD SVG 20010904//EN"
 "http://www.w3.org/TR/2001/REC-SVG-20010904/DTD/svg10.dtd">
<svg version="1.0" xmlns="http://www.w3.org/2000/svg"
 width="300.000000pt" height="300.000000pt" viewBox="0 0 300.000000 300.000000"
 preserveAspectRatio="xMidYMid meet">

<g transform="translate(0.000000,300.000000) scale(0.100000,-0.100000)"
fill="#000000" stroke="none">
<path d="M1440 2810 c-10 -6 -2 -9 28 -7 23 0 42 5 42 9 0 11 -52 10 -70 -2z"/>
<path d="M1590 2804 c0 -13 3 -14 14 -5 8 7 26 9 43 6 21 -5 24 -4 13 4 -24
17 -70 14 -70 -5z"/>
<path d="M1336 2767 c-104 -56 -208 -168 -295 -315 -34 -58 -38 -72 -18 -71 6
0 27 31 45 68 65 134 180 256 306 323 28 15 44 27 36 27 -8 0 -42 -14 -74 -32z"/>
<path d="M1717 2781 c96 -44 200 -141 284 -265 47 -69 52 -65 8 8 -68 111
-188 224 -277 262 -51 21 -64 17 -15 -5z"/>
<path d="M1137 2744 c-16 -9 -27 -18 -24 -20 9 -9 56 8 61 22 7 18 -2 17 -37
-2z"/>
<path d="M1920 2740 c0 -15 35 -29 49 -20 11 6 9 10 -7 19 -25 14 -42 14 -42
1z"/>
<path d="M1025 2687 c-87 -47 -150 -91 -227 -159 -64 -57 -80 -78 -59 -78 4 0
40 31 79 69 71 68 173 141 245 175 35 16 47 26 30 26 -5 0 -35 -15 -68 -33z"/>
<path d="M1990 2715 c0 -3 21 -16 48 -30 63 -34 116 -66 122 -74 3 -3 23 -19
45 -36 22 -16 59 -49 83 -74 23 -24 45 -41 49 -37 13 12 -206 196 -233 196 -3
0 -18 8 -32 18 -31 21 -82 44 -82 37z"/>
<path d="M2070 2545 c0 -5 5 -17 10 -25 5 -8 10 -10 10 -5 0 6 -5 17 -10 25
-5 8 -10 11 -10 5z"/>
<path d="M2100 2495 c0 -24 34 -95 46 -95 8 0 4 15 -13 48 -31 55 -33 58 -33
47z"/>
<path d="M644 2348 c-250 -349 -262 -847 -27 -1204 31 -48 23 -16 -12 46 -77
136 -135 363 -135 530 0 165 51 369 126 507 44 81 92 153 102 153 4 0 30 -9
58 -20 68 -25 221 -63 237 -57 6 2 -8 9 -33 15 -84 19 -185 49 -224 65 -21 10
-42 17 -46 17 -5 0 -25 -24 -46 -52z"/>
<path d="M2346 2378 c-32 -18 -186 -57 -331 -84 -22 -4 -33 -9 -24 -11 22 -5
253 43 324 67 33 12 69 18 80 16 19 -5 62 -65 94 -130 10 -18 17 -24 19 -16 3
8 0 16 -6 18 -7 2 -12 9 -12 15 0 7 -18 40 -41 75 -42 64 -62 74 -103 50z"/>
<path d="M2531 2305 c2 -6 14 -30 25 -55 39 -83 54 -121 54 -139 0 -10 3 -21
7 -25 16 -16 44 -150 55 -266 10 -109 9 -140 -6 -240 -41 -272 -131 -470 -296
-654 -48 -53 -199 -179 -255 -211 -44 -26 -60 -43 -30 -31 33 12 153 97 211
148 202 178 328 396 379 661 9 45 20 96 26 113 11 38 12 211 0 218 -4 3 -11
32 -15 65 -13 116 -89 332 -141 403 -9 13 -15 18 -14 13z"/>
<path d="M1055 2290 c19 -8 83 -14 74 -6 -2 2 -24 6 -49 9 -30 4 -38 3 -25 -3z"/>
<path d="M1893 2273 c9 -2 23 -2 30 0 6 3 -1 5 -18 5 -16 0 -22 -2 -12 -5z"/>
<path d="M1432 2253 c59 -2 158 -2 220 0 62 1 14 3 -107 3 -121 0 -172 -2
-113 -3z"/>
<path d="M2516 2185 c4 -8 8 -15 10 -15 2 0 4 7 4 15 0 8 -4 15 -10 15 -5 0
-7 -7 -4 -15z"/>
<path d="M1026 2142 c-3 -5 -16 -42 -30 -83 -13 -41 -57 -166 -96 -279 -39
-113 -78 -230 -87 -260 -24 -89 -28 -93 -79 -87 -24 2 -44 1 -44 -3 0 -10 93
-20 103 -11 6 6 116 316 167 471 5 14 23 66 40 115 44 123 50 145 40 145 -5 0
-11 -4 -14 -8z"/>
<path d="M1405 2131 c-4 -7 -56 -11 -140 -11 l-134 0 -19 -27 c-11 -16 -40
-91 -66 -167 -26 -77 -56 -162 -67 -189 -11 -26 -16 -53 -13 -59 7 -11 41 72
115 275 56 156 56 156 202 150 95 -3 116 -2 127 12 7 8 10 18 7 21 -3 3 -8 1
-12 -5z"/>
<path d="M1586 2039 c-15 -12 -39 -40 -53 -63 -58 -91 -82 -136 -73 -136 5 0
23 24 39 53 62 107 99 147 139 147 30 0 73 -28 192 -125 129 -106 224 -185
246 -205 25 -23 34 -25 33 -7 0 6 -53 54 -117 105 -64 52 -148 120 -187 153
-125 106 -165 121 -219 78z"/>
<path d="M1365 1850 c3 -5 14 -10 23 -10 15 0 15 2 2 10 -20 13 -33 13 -25 0z"/>
<path d="M2121 1774 c0 -11 3 -14 6 -6 3 7 2 16 -1 19 -3 4 -6 -2 -5 -13z"/>
<path d="M1780 1772 c0 -5 35 -36 78 -68 42 -31 91 -68 109 -81 17 -13 34 -20
37 -15 3 5 -34 38 -82 74 -114 85 -142 102 -142 90z"/>
<path d="M2099 1642 c-36 -32 -119 -103 -184 -159 -66 -56 -142 -122 -170
-146 -27 -24 -63 -48 -80 -52 l-30 -9 28 -4 c16 -2 40 4 54 13 30 20 409 353
437 384 40 44 7 28 -55 -27z"/>
<path d="M1670 1662 c0 -10 197 -162 211 -162 24 0 1 22 -93 91 -111 81 -118
85 -118 71z"/>
<path d="M1174 1603 c-42 -68 -51 -75 -77 -62 -21 10 -21 10 -3 -5 22 -18 26
-19 42 -8 15 9 78 112 72 117 -2 3 -17 -16 -34 -42z"/>
<path d="M950 1630 c0 -18 49 -31 71 -20 10 6 19 15 19 20 0 13 -6 13 -30 -2
-16 -10 -24 -10 -40 0 -12 7 -20 8 -20 2z"/>
<path d="M1329 1558 c-28 -55 -65 -107 -79 -112 -9 -3 -7 -4 5 -3 23 3 110
122 96 132 -6 3 -15 -5 -22 -17z"/>
<path d="M1560 1546 c0 -7 201 -146 211 -146 5 0 9 7 9 15 0 8 -4 15 -9 15 -6
0 -52 27 -103 60 -85 55 -108 67 -108 56z"/>
<path d="M1455 1448 c-15 -29 -37 -64 -49 -77 -14 -16 -16 -22 -6 -19 14 4
100 125 100 141 0 21 -20 1 -45 -45z"/>
<path d="M2392 1444 c-7 -8 -31 -14 -52 -14 -22 0 -40 -4 -40 -10 0 -6 19 -7
48 -4 50 7 67 16 61 32 -2 6 -10 4 -17 -4z"/>
<path d="M1580 1357 c-26 -36 -48 -56 -57 -52 -40 16 -45 14 -18 -9 17 -14 33
-26 36 -26 11 0 90 122 86 133 -2 6 -23 -15 -47 -46z"/>
<path d="M500 1235 c0 -15 34 -85 41 -85 4 0 -2 19 -13 43 -22 46 -28 55 -28
42z"/>
<path d="M1565 1190 c-3 -5 -1 -10 4 -10 6 0 11 5 11 10 0 6 -2 10 -4 10 -3 0
-8 -4 -11 -10z"/>
<path d="M1470 1150 c-15 -5 -18 -8 -8 -9 9 -1 23 -4 32 -7 11 -4 16 -1 16 10
0 17 -3 18 -40 6z"/>
<path d="M1576 1151 c-4 -6 -9 -483 -6 -536 0 -5 5 -2 11 8 7 12 10 103 10
254 -1 166 2 239 10 249 6 8 27 14 47 14 19 0 33 2 31 4 -10 8 -99 15 -103 7z"/>
<path d="M550 1133 c0 -6 23 -46 52 -89 58 -87 175 -209 258 -271 61 -44 161
-103 176 -103 5 1 -9 10 -31 22 -97 51 -265 195 -335 287 -14 19 -37 47 -51
65 -14 17 -35 47 -47 66 -12 19 -22 30 -22 23z"/>
<path d="M1328 1133 c17 -2 47 -2 65 0 17 2 3 4 -33 4 -36 0 -50 -2 -32 -4z"/>
<path d="M1748 1133 c18 -2 45 -2 60 0 15 2 0 4 -33 4 -33 0 -45 -2 -27 -4z"/>
<path d="M2161 1124 c0 -11 3 -14 6 -6 3 7 2 16 -1 19 -3 4 -6 -2 -5 -13z"/>
<path d="M1073 1113 c-45 -4 -53 -7 -53 -24 0 -12 3 -19 8 -17 41 20 65 28
112 36 58 10 33 12 -67 5z"/>
<path d="M2010 1106 c59 -13 81 -13 69 -2 -2 3 -33 7 -69 10 l-65 5 65 -13z"/>
<path d="M2130 1038 c-38 -90 -112 -209 -169 -270 -29 -32 -51 -61 -48 -64 3
-3 10 -3 16 0 25 16 160 208 199 284 24 45 48 82 53 82 6 0 7 5 4 10 -14 22
-34 7 -55 -42z"/>
<path d="M830 1053 c-52 -13 -99 -28 -104 -33 -19 -19 4 -22 37 -7 19 9 66 24
105 34 40 10 72 21 72 26 0 9 5 10 -110 -20z"/>
<path d="M2210 1071 c0 -5 21 -14 48 -21 26 -6 58 -16 71 -21 14 -6 28 -6 33
-1 5 5 -16 14 -49 21 -32 7 -68 17 -80 22 -13 5 -23 5 -23 0z"/>
<path d="M1155 726 c10 -14 24 -26 31 -26 20 0 18 3 -17 29 l-31 23 17 -26z"/>
<path d="M2035 670 c-3 -6 1 -7 9 -4 18 7 21 14 7 14 -6 0 -13 -4 -16 -10z"/>
<path d="M1070 650 c8 -5 20 -10 25 -10 6 0 3 5 -5 10 -8 5 -19 10 -25 10 -5
0 -3 -5 5 -10z"/>
<path d="M1970 640 c-19 -11 -32 -19 -29 -20 11 0 79 30 79 35 0 9 -14 5 -50
-15z"/>
<path d="M1110 635 c0 -7 42 -23 78 -30 15 -3 5 3 -23 15 -56 22 -55 22 -55
15z"/>
<path d="M1885 610 c-13 -5 -14 -9 -5 -9 8 0 24 4 35 9 13 5 14 9 5 9 -8 0
-24 -4 -35 -9z"/>
<path d="M1828 593 c6 -2 18 -2 25 0 6 3 1 5 -13 5 -14 0 -19 -2 -12 -5z"/>
<path d="M1366 561 c92 -18 273 -26 287 -12 6 6 29 11 52 12 22 0 48 3 57 7
10 4 -91 7 -224 7 -230 0 -237 -1 -172 -14z"/>
<path d="M361 418 c-60 -164 -57 -148 -35 -148 9 0 18 9 21 20 4 16 14 20 43
20 30 0 40 -5 45 -20 3 -11 13 -20 21 -20 17 0 16 6 -21 105 -17 44 -28 61
-44 63 -14 2 -24 -4 -30 -20z m46 -48 c11 -28 10 -30 -13 -30 -26 0 -27 3 -18
38 8 30 17 28 31 -8z"/>
<path d="M500 355 l0 -85 55 0 c42 0 55 3 55 15 0 11 -11 15 -43 15 l-43 0 4
70 c4 59 2 70 -12 70 -13 0 -16 -13 -16 -85z"/>
<path d="M674 429 c-22 -11 -44 -48 -44 -74 0 -52 56 -93 107 -80 40 10 53 24
53 56 0 26 -3 29 -35 29 -24 0 -35 -5 -35 -15 0 -9 9 -15 21 -15 32 0 17 -25
-18 -28 -52 -5 -79 40 -53 89 11 20 59 26 76 9 5 -5 15 -6 24 0 36 22 -55 50
-96 29z"/>
<path d="M820 355 l0 -86 62 3 c78 4 95 28 19 28 -44 0 -51 3 -51 20 0 17 7
20 45 20 33 0 45 4 45 15 0 11 -12 15 -45 15 -38 0 -45 3 -45 20 0 17 7 20 45
20 33 0 45 4 45 15 0 12 -13 15 -60 15 l-60 0 0 -85z"/>
<path d="M980 355 c0 -69 3 -85 15 -85 10 0 15 11 15 35 0 24 5 35 14 35 8 0
27 -16 42 -35 14 -19 33 -35 40 -35 20 0 17 13 -8 45 -19 25 -20 28 -5 37 24
13 22 65 -2 78 -11 5 -40 10 -65 10 l-46 0 0 -85z m98 38 c-2 -12 -14 -19 -36
-21 -27 -3 -32 0 -32 17 0 17 6 21 36 21 28 0 35 -3 32 -17z"/>
<path d="M1150 355 c0 -69 3 -85 15 -85 12 0 15 16 15 85 0 69 -3 85 -15 85
-12 0 -15 -16 -15 -85z"/>
<path d="M1251 418 c-5 -13 -15 -43 -24 -68 -8 -25 -18 -53 -22 -62 -5 -13 -2
-18 10 -18 9 0 19 9 22 20 4 16 14 20 43 20 30 0 40 -5 45 -20 3 -11 13 -20
21 -20 17 0 16 6 -21 105 -17 44 -28 61 -44 63 -14 2 -24 -4 -30 -20z m46 -48
c11 -28 10 -30 -13 -30 -26 0 -27 3 -18 38 8 30 17 28 31 -8z"/>
<path d="M1440 355 c0 -69 3 -85 15 -85 10 0 15 10 15 30 0 27 3 30 30 30 32
0 70 30 70 55 0 30 -38 55 -85 55 l-45 0 0 -85z m93 43 c8 -24 -5 -38 -34 -38
-24 0 -29 4 -29 25 0 21 5 25 29 25 16 0 31 -6 34 -12z"/>
<path d="M1596 362 c-14 -42 -26 -80 -26 -85 0 -16 28 -6 33 13 4 15 14 20 42
20 28 0 38 -5 42 -20 3 -11 14 -20 24 -20 18 0 17 4 -7 68 -14 37 -28 75 -31
85 -3 10 -15 17 -28 17 -20 0 -27 -11 -49 -78z m68 1 c6 -20 4 -23 -18 -23
-30 0 -29 -2 -15 40 12 34 19 30 33 -17z"/>
<path d="M1750 355 c0 -69 3 -85 15 -85 10 0 15 11 15 35 0 47 27 47 59 0 14
-20 32 -35 43 -35 19 0 19 2 -6 35 l-27 34 21 21 c25 25 25 35 0 60 -15 15
-33 20 -70 20 l-50 0 0 -85z m100 35 c0 -16 -7 -20 -35 -20 -28 0 -35 4 -35
20 0 16 7 20 35 20 28 0 35 -4 35 -20z"/>
<path d="M1910 425 c0 -9 9 -15 25 -15 24 0 25 -2 25 -70 0 -56 3 -70 15 -70
12 0 15 14 15 70 0 68 1 70 25 70 16 0 25 6 25 15 0 12 -14 15 -65 15 -51 0
-65 -3 -65 -15z"/>
<path d="M2060 355 c0 -69 3 -85 15 -85 11 0 15 12 15 50 0 28 4 50 8 50 4 0
21 -22 37 -50 18 -31 36 -50 47 -50 16 0 18 10 18 85 0 69 -3 85 -15 85 -11 0
-15 -12 -15 -50 0 -27 -4 -50 -8 -50 -4 0 -21 23 -37 50 -18 31 -36 50 -47 50
-16 0 -18 -10 -18 -85z"/>
<path d="M2240 355 l0 -85 60 0 c47 0 60 3 60 15 0 11 -12 15 -50 15 -43 0
-50 3 -50 20 0 17 7 20 45 20 33 0 45 4 45 15 0 11 -12 15 -45 15 -38 0 -45 3
-45 20 0 17 7 20 50 20 38 0 50 4 50 15 0 12 -13 15 -60 15 l-60 0 0 -85z"/>
<path d="M2390 355 c0 -69 3 -85 15 -85 10 0 15 11 15 35 0 47 29 47 61 0 13
-19 32 -35 42 -35 19 0 18 5 -14 51 -17 24 -17 26 2 37 10 7 19 21 19 31 0 35
-28 51 -86 51 l-54 0 0 -85z m105 35 c0 -10 -12 -16 -37 -18 -33 -3 -38 0 -38
18 0 18 5 21 38 18 25 -2 37 -8 37 -18z"/>
<path d="M2588 433 c-20 -5 -35 -50 -22 -63 5 -5 27 -16 49 -23 22 -8 40 -20
40 -28 0 -20 -49 -23 -65 -5 -7 9 -19 16 -26 16 -11 0 -11 -5 -2 -25 15 -33
68 -44 103 -21 46 30 24 77 -42 91 -39 8 -45 35 -9 35 14 0 28 -4 31 -10 7
-12 35 -14 35 -2 -1 27 -52 47 -92 35z"/>
</g>
</svg>
